<?xml version="1.0" standalone="no"?>
<!DOCTYPE svg PUBLIC "-//W3C//DTD SVG 20010904//EN"
 "http://www.w3.org/TR/2001/REC-SVG-20010904/DTD/svg10.dtd">
<svg version="1.0" xmlns="http://www.w3.org/2000/svg"
 width="512.000000pt" height="512.000000pt" viewBox="0 0 512.000000 512.000000"
 preserveAspectRatio="xMidYMid meet">
<metadata>
Created by potrace 1.14, written by Peter Selinger 2001-2017
</metadata>
<g transform="translate(0.000000,512.000000) scale(0.100000,-0.100000)"
fill="#000000" stroke="none">
<path d="M0 2560 l0 -2560 435 0 435 0 0 2125 0 2125 2125 0 2125 0 0 435 0
435 -2560 0 -2560 0 0 -2560z"/>
<path d="M1310 2125 l0 -1685 1685 0 1685 0 0 1685 0 1685 -1685 0 -1685 0 0
-1685z m2305 1212 c143 -41 249 -116 325 -229 182 -272 55 -683 -258 -833 -34
-17 -62 -33 -62 -36 0 -3 19 -12 43 -18 57 -17 169 -93 205 -139 41 -51 87
-146 103 -212 19 -77 16 -258 -5 -345 -10 -38 -40 -117 -68 -175 -46 -95 -61
-115 -152 -205 -86 -86 -115 -108 -196 -148 -52 -26 -140 -60 -195 -74 l-100
-27 -647 -4 c-620 -3 -646 -2 -642 15 4 18 364 2439 364 2449 0 3 276 4 613 2
543 -4 619 -6 672 -21z"/>
<path d="M2756 2908 c-7 -29 -76 -493 -76 -508 0 -9 77 -11 283 -8 268 4 285
5 342 28 194 76 274 325 143 447 -57 54 -81 57 -395 61 l-292 4 -5 -24z"/>
<path d="M2615 1969 c-4 -13 -95 -612 -95 -630 0 -13 569 -11 632 2 123 26
235 103 282 197 90 178 29 365 -136 418 -73 23 -675 34 -683 13z"/>
</g>
</svg>
